<svg version="1.2" xmlns="http://www.w3.org/2000/svg" viewBox="0 0 24 24" width="24" height="24">
	<title>googleads</title>
	<style>
		.s0 { fill: #ffffff } 
	</style>
	<path class="s0" d="m4 22.93c-2.21 0-4-1.79-4-4 0-2.21 1.79-4 4-4 2.21 0 4 1.79 4 4 0 2.21-1.79 4-4 4zm19.46-6l-8-13.86c-1.1-1.91-3.55-2.57-5.46-1.46-1.91 1.1-2.57 3.55-1.47 5.46l8 13.86c1.11 1.91 3.56 2.57 5.47 1.46 1.91-1.1 2.57-3.55 1.46-5.46zm-15.95-12.09l-5.95 10.31q0.28-0.18 0.57-0.31 0.29-0.14 0.6-0.23 0.31-0.09 0.63-0.13 0.32-0.05 0.64-0.05c2.56-0.01 4.62 2.16 4.49 4.71l3.22-5.57-3.61-6.25c-0.45-0.78-0.63-1.64-0.59-2.48z"/>
</svg>